<svg width="224" height="134" viewBox="0 0 224 134" fill="none" xmlns="http://www.w3.org/2000/svg">
<g clip-path="url(#clip0_3212_10017)">
<path d="M35.9501 133.634C35.233 133.277 34.8617 132.743 34.7976 131.941C34.7335 131.165 35.0281 130.694 35.7452 130.465C36.8722 130.083 37.4998 130.859 37.0644 132.106C36.8467 132.717 37.0003 133.099 37.5255 133.265C38.5115 133.595 39.6896 132.552 40.8552 130.325C42.5585 127.067 43.2756 122.956 42.9939 118.145C42.7762 114.442 42.3663 113.118 41.5082 113.335C40.8166 113.5 40.0995 114.62 39.7537 116.02C39.5744 116.784 39.4848 116.898 39.1519 116.796C38.8956 116.707 38.8956 116.707 39.1262 115.88C39.8306 113.462 41.0217 112.431 42.6864 112.787C44.0184 113.067 44.902 114.149 45.3502 116.045C45.5167 116.733 45.5424 117.331 45.4783 119.011C45.44 120.169 45.3247 121.492 45.235 121.976C45.1325 122.447 45.0942 122.829 45.1325 122.829C45.1711 122.829 46.3107 120.869 47.6427 118.476C48.9874 116.071 50.2682 113.895 50.5114 113.627C51.0877 112.991 51.5871 112.749 52.3045 112.736C53.0599 112.724 53.4443 112.94 53.6748 113.5C54.0461 114.366 53.4057 115.32 52.4581 115.32C51.7024 115.32 51.4464 114.824 51.8817 114.2C52.2916 113.615 51.741 113.296 51.1901 113.793C51.0494 113.933 50.7548 114.289 50.5499 114.582C50.1784 115.116 45.7729 123.032 43.2244 127.728C42.5073 129.065 41.6492 130.541 41.3289 131.037C40.6247 132.119 39.4848 133.265 38.7165 133.621C37.948 134.003 36.7057 134.003 35.9501 133.634Z" fill="#414141"/>
<path d="M169.922 133.715C169.307 133.435 168.897 132.977 168.731 132.366C168.462 131.348 169.026 130.482 170.05 130.368C170.524 130.317 170.677 130.355 170.908 130.584C171.151 130.826 171.177 130.941 171.1 131.399C171.049 131.679 170.998 132.2 170.985 132.544C170.972 133.129 170.998 133.18 171.318 133.27C172.739 133.651 174.327 131.831 175.518 128.484C175.928 127.313 179.489 114.205 179.489 113.849C179.489 113.696 179.258 113.658 178.093 113.658H176.71L176.761 113.34C176.825 113.034 176.85 113.034 178.298 112.996L179.783 112.958L180.129 111.749C180.731 109.649 181.294 108.465 182.46 106.887C183.792 105.093 185.815 103.617 187.544 103.222C188.953 102.891 190.464 103.26 191.181 104.113C192.231 105.347 191.681 107.167 190.246 107.167C189.081 107.167 188.645 106.34 189.286 105.322C189.683 104.673 189.708 104.049 189.324 103.845C188.953 103.642 187.595 103.769 187.045 104.049C185.123 105.016 183.676 107.396 182.511 111.507L182.076 113.021H183.932C185.777 113.021 185.777 113.021 185.738 113.314C185.7 113.594 185.661 113.594 183.817 113.632L181.935 113.67L181.807 114.078C181.743 114.294 181.09 116.725 180.372 119.448C178.861 125.252 178.554 126.206 177.632 128.141C176.735 130.011 175.967 131.119 174.84 132.2C173.559 133.435 172.803 133.804 171.42 133.855C170.652 133.88 170.204 133.842 169.922 133.715Z" fill="#414141"/>
<path d="M26.8002 126.468C25.7244 126.175 24.7896 125.335 24.3926 124.304C24.2261 123.859 24.1878 122.701 24.3285 121.937C24.3797 121.619 25.827 117.432 27.543 112.634C29.2592 107.823 30.6679 103.865 30.6679 103.814C30.6679 103.776 30.0915 103.738 29.3873 103.738C28.6828 103.738 28.1065 103.687 28.1065 103.623C28.1065 103.114 28.1834 103.102 30.7448 103.102C32.1152 103.102 33.2293 103.153 33.2293 103.216C33.2293 103.267 32.2559 106.029 31.052 109.35C29.861 112.672 28.875 115.421 28.875 115.472C28.875 115.523 29.3232 115.116 29.8739 114.568C31.2059 113.245 32.2304 112.736 33.5239 112.736C35.432 112.736 36.7895 113.817 37.2763 115.739C37.8781 118.03 36.6359 120.995 34.049 123.477C32.3969 125.055 30.7064 126.048 28.9646 126.455C28.0169 126.684 27.5942 126.684 26.8002 126.468ZM29.3616 125.628C31.9101 124.431 34.7661 119.837 35.2784 116.095C35.4961 114.479 35.1503 113.677 34.0874 113.397C31.59 112.736 27.9657 116.668 26.5058 121.619C26.0447 123.159 25.9935 124.813 26.3905 125.335C26.9924 126.137 28.0681 126.239 29.3616 125.628Z" fill="#414141"/>
<path d="M82.4773 126.557C81.2222 126.226 80.774 125.475 81.0302 124.088C81.0943 123.706 82.7336 119.01 84.6674 113.639C86.601 108.256 88.1765 103.84 88.1765 103.801C88.1765 103.776 87.5744 103.725 86.8444 103.712C85.5381 103.674 85.5253 103.674 85.6279 103.394C85.7303 103.102 85.7558 103.102 88.2532 103.102C90.5969 103.102 90.7633 103.114 90.6738 103.331C90.6224 103.445 88.8936 108.294 86.8189 114.085C84.616 120.257 83.0537 124.813 83.0537 125.068C83.0537 126.111 83.7196 126.315 84.7953 125.602C85.3205 125.233 86.3707 123.96 86.5372 123.464C86.5627 123.362 86.6908 123.337 86.8701 123.388L87.1519 123.477L86.8189 124.126C86.3834 124.966 85.5126 125.882 84.8082 126.239C84.2447 126.519 82.9641 126.697 82.4773 126.557Z" fill="#414141"/>
<path d="M122.828 126.501C121.33 126.145 120.625 124.948 121.01 123.447C121.163 122.899 123.981 114.83 124.352 113.889C124.442 113.672 124.327 113.66 123.072 113.66C121.868 113.66 121.714 113.634 121.778 113.456C121.816 113.342 121.855 113.202 121.855 113.138C121.855 113.074 122.943 113.023 124.416 113.023C125.825 113.023 126.978 113.049 126.978 113.074C126.978 113.1 126.107 115.594 125.031 118.636C123.968 121.678 123.072 124.426 123.033 124.757C122.905 126.005 123.75 126.374 125.159 125.674C125.991 125.266 127.644 123.727 128.489 122.594C129.513 121.219 129.974 120.252 131.012 117.287C131.55 115.747 132.1 114.156 132.254 113.762L132.523 113.023H133.65C134.277 113.023 134.79 113.049 134.79 113.074C134.79 113.087 133.906 115.658 132.818 118.763C131.729 121.868 130.807 124.63 130.756 124.897C130.576 125.826 131.294 126.297 132.203 125.826C132.689 125.572 133.688 124.49 134.009 123.854C134.29 123.307 134.354 123.268 134.636 123.447C134.892 123.599 134.277 124.732 133.56 125.457C132.741 126.259 131.998 126.577 130.884 126.565C129.257 126.552 128.579 125.915 128.681 124.477C128.719 124.019 128.783 123.535 128.835 123.396C128.886 123.256 128.54 123.561 128.053 124.07C126.581 125.661 124.877 126.666 123.725 126.628C123.507 126.616 123.097 126.565 122.828 126.501Z" fill="#414141"/>
<path d="M143.051 126.403C142.424 126.263 141.438 126.046 140.861 125.894C138.684 125.334 137.442 125.41 136.52 126.136C135.995 126.556 135.713 126.619 135.61 126.339C135.559 126.212 137.275 124.214 140.362 120.765L145.19 115.382L142.283 115.267C140.234 115.191 139.286 115.203 139.068 115.305C138.863 115.394 138.71 115.623 138.607 116.018C138.479 116.514 138.415 116.578 138.185 116.514C138.044 116.463 137.916 116.425 137.89 116.4C137.839 116.349 138.607 113.574 138.761 113.282L138.914 112.989L143.077 113.078C146.765 113.167 147.265 113.154 147.457 112.976C147.649 112.811 147.713 112.798 147.918 112.951C148.136 113.104 147.777 113.523 143.5 118.258L138.838 123.399L139.978 123.552C141.655 123.768 142.129 123.908 143.884 124.736C145.728 125.601 146.406 125.767 146.893 125.448C147.418 125.105 147.329 124.608 146.612 123.972C145.907 123.361 145.689 123.03 145.677 122.547C145.677 122.037 145.792 121.821 146.202 121.617C146.714 121.35 147.495 121.376 147.892 121.681C148.571 122.216 148.622 124.023 147.995 125.041C147.136 126.415 145.408 126.886 143.051 126.403Z" fill="#414141"/>
<path d="M152.684 126.466C150.903 125.97 149.943 123.896 150.404 121.529C150.583 120.638 151.326 118.958 151.966 118.029C152.555 117.163 154.297 115.407 155.283 114.682C158.357 112.429 160.752 112.098 161.904 113.778C162.199 114.211 162.225 114.211 162.442 113.511L162.609 113.027H163.748C164.376 113.027 164.888 113.052 164.888 113.078C164.888 113.103 164.146 115.191 163.236 117.698C161.187 123.361 160.918 124.214 160.918 125.003C160.918 125.537 160.957 125.652 161.213 125.766C161.981 126.11 163.313 125.181 163.992 123.832C164.351 123.132 164.312 123.157 164.619 123.336L164.901 123.476L164.543 124.125C164.082 124.977 163.147 125.894 162.365 126.276C161.226 126.835 159.522 126.606 159.112 125.856C158.856 125.385 158.767 124.799 158.869 124.176C158.921 123.857 158.921 123.59 158.869 123.59C158.818 123.59 158.536 123.87 158.242 124.227C157.588 125.003 156.269 125.945 155.399 126.276C154.541 126.606 153.439 126.683 152.684 126.466ZM155.834 125.512C157.063 124.812 158.703 123.145 159.305 121.974C159.766 121.07 161.584 115.852 161.636 115.254C161.763 113.994 160.957 113.193 159.702 113.345C158.715 113.46 157.845 113.931 156.859 114.86C155.744 115.903 154.809 117.214 154.003 118.919C152.479 122.076 152.171 125.028 153.273 125.83C153.734 126.161 154.976 125.995 155.834 125.512Z" fill="#414141"/>
<path d="M168.51 126.526C167.575 126.284 167.062 125.635 167.062 124.681C167.062 124.108 167.306 123.345 169.124 118.19C169.97 115.823 170.648 113.838 170.648 113.774C170.648 113.711 170.072 113.66 169.368 113.66C168.663 113.66 168.087 113.609 168.087 113.545C168.087 113.036 168.164 113.023 170.725 113.023C172.096 113.023 173.21 113.049 173.21 113.087C173.21 113.113 172.326 115.683 171.237 118.776C170.149 121.881 169.227 124.643 169.176 124.897C168.996 125.826 169.713 126.297 170.623 125.826C171.11 125.572 172.108 124.49 172.428 123.854C172.685 123.357 172.979 123.192 173.146 123.459C173.261 123.637 172.634 124.795 172.108 125.368C171.263 126.297 169.649 126.819 168.51 126.526Z" fill="#414141"/>
<path d="M187.453 126.412C185.98 125.89 185.25 124.668 185.25 122.708C185.25 121.079 185.724 119.731 186.928 117.974C189.015 114.92 193.241 112.311 195.355 112.782C196.059 112.934 196.584 113.303 196.866 113.825L197.083 114.233L197.276 113.634L197.468 113.024H198.659H199.85L199.709 113.38C199.222 114.64 196.43 122.416 196.2 123.167C195.752 124.554 195.675 125.33 195.956 125.636C196.584 126.323 198.134 125.343 198.94 123.739C199.184 123.269 199.248 123.218 199.465 123.332C199.798 123.51 199.786 123.523 199.35 124.287C198.915 125.05 198.044 125.877 197.263 126.272C196.597 126.615 195.252 126.679 194.676 126.387C193.971 126.03 193.767 125.585 193.779 124.503L193.805 123.523L192.742 124.579C190.962 126.323 189.079 126.985 187.453 126.412ZM190.437 125.636C191.717 125.025 193.421 123.37 194.125 122.072C194.484 121.41 196.315 116.421 196.494 115.594C196.609 115.098 196.558 114.551 196.328 114.016C196.021 113.265 194.522 113.113 193.293 113.724C190.526 115.073 187.555 120.278 187.53 123.828C187.517 125.877 188.567 126.539 190.437 125.636Z" fill="#414141"/>
<path d="M55.9548 126.058C55.9932 125.943 56.0317 125.803 56.0317 125.74C56.0317 125.676 56.6336 125.625 57.3635 125.625H58.6827L66.2898 114.871C73.6665 104.435 73.9099 104.117 74.3069 104.117C74.6782 104.117 74.7296 104.168 74.7808 104.537C74.8192 104.753 74.9345 109.131 75.0497 114.235C75.1521 119.351 75.2803 123.996 75.3186 124.581L75.3955 125.625H76.9964C78.5716 125.625 78.5845 125.625 78.5459 125.918L78.5076 126.198L73.7306 126.236L68.9536 126.261L68.9921 125.982C69.0305 125.701 69.0817 125.689 70.6954 125.651L72.3602 125.612L72.2835 122.151C72.2323 120.254 72.1937 118.384 72.1811 118.027L72.1682 117.353H68.7487L65.3166 117.365L62.499 121.374C60.9495 123.576 59.6687 125.434 59.6432 125.498C59.6175 125.562 60.2579 125.638 61.0648 125.651C62.5247 125.689 62.5247 125.689 62.4223 125.982L62.3199 126.261H59.0926C56.2108 126.261 55.8779 126.236 55.9548 126.058ZM72.1682 114.591C72.1682 110.862 72.0272 108.024 71.8479 108.215C71.6174 108.457 65.893 116.564 65.893 116.653C65.893 116.691 67.3017 116.716 69.0305 116.716H72.1682V114.591Z" fill="#414141"/>
<path d="M93.7337 126.059C93.7721 125.945 93.8105 125.804 93.8105 125.741C93.8105 125.677 94.5149 125.626 95.3859 125.626H96.9739L100.598 115.547C102.596 109.998 104.248 105.391 104.286 105.302C104.325 105.187 103.902 105.136 102.609 105.111L100.893 105.073L100.995 104.793L101.098 104.5H105.849H110.6L110.562 104.793C110.523 105.06 110.472 105.073 108.91 105.111L107.309 105.149L105.567 109.973L103.838 114.809L108.641 114.783L113.456 114.745L115.095 110.227C116.005 107.745 116.773 105.582 116.811 105.429C116.888 105.136 116.888 105.136 115.198 105.136C113.52 105.136 113.52 105.136 113.559 104.856L113.597 104.564L118.374 104.526C121.243 104.513 123.138 104.538 123.138 104.615C123.138 105.098 123.01 105.136 121.422 105.136H119.872L116.235 115.229C114.225 120.765 112.56 125.384 112.534 125.474C112.496 125.588 112.88 125.626 114.212 125.626H115.928L115.864 125.945L115.813 126.263H110.959H106.118L106.22 125.983C106.323 125.703 106.4 125.69 107.911 125.652L109.499 125.614L111.279 120.688C112.265 117.978 113.098 115.687 113.123 115.611C113.162 115.483 112.163 115.445 108.385 115.445H103.595L101.815 120.37C100.829 123.068 100.009 125.359 99.9833 125.461C99.945 125.588 100.291 125.626 101.661 125.626H103.377L103.313 125.945L103.262 126.263H98.4593C94.1308 126.263 93.6568 126.237 93.7337 126.059Z" fill="#414141"/>
<path d="M173.147 107.135C172.724 106.715 172.634 106.473 172.698 105.786C172.775 104.781 174.197 104.182 175.003 104.793C175.733 105.353 175.862 106.41 175.285 107.059C174.991 107.39 174.799 107.479 174.261 107.53C173.633 107.581 173.569 107.555 173.147 107.135Z" fill="#414141"/>
<path d="M75.132 96.8024C73.8128 96.4589 72.8781 96.0008 72.3272 95.4407C71.9816 95.0717 72.0071 95.0845 73.1853 95.6443C74.4916 96.2679 75.7724 96.6116 76.8994 96.6116C77.7958 96.6116 77.6165 96.4334 76.4512 96.1534C74.5685 95.7081 73.4287 95.3006 72.6987 94.8043C70.9954 93.6334 69.7915 92.1317 69.3305 90.6046C69.0616 89.7264 69.0873 89.0393 69.3817 89.1284C69.4714 89.1666 69.8044 89.701 70.1373 90.3246C71.1876 92.2846 72.8781 93.519 74.7093 93.659C76.1054 93.7481 76.656 93.6209 77.7063 92.9209C80.0755 91.3426 81.8812 89.1666 83.3668 86.1249C84.4169 83.974 84.8908 82.6504 85.5439 80.1307C86.0307 78.2471 86.0945 77.6361 85.8001 77.3943C85.531 77.1653 85.1597 77.3436 83.9815 78.2089C83.4052 78.6289 82.4959 79.2143 81.9579 79.4943C80.8183 80.0797 80.8821 80.207 82.1117 79.7998C83.0594 79.4943 83.8022 79.0871 84.3657 78.5524L84.737 78.2215L84.6346 78.6033C84.5834 78.8197 84.545 78.9852 84.5322 78.998C84.2761 79.2143 82.7519 80.156 82.3678 80.3215C81.83 80.576 80.5366 80.6524 79.768 80.4997C79.2174 80.3978 78.3722 79.2143 78.0264 78.1198C77.8087 77.4071 77.783 77.0508 77.847 76.2872L77.9239 75.3581L76.6688 76.5927C75.3497 77.9162 74.3251 78.6924 71.8406 80.2452C69.6508 81.6068 69.2537 81.8868 69.4331 81.9377C69.625 82.0015 71.8278 81.0851 72.8652 80.5123C73.3006 80.2705 74.0817 79.7488 74.5814 79.3542C75.529 78.6289 75.8108 78.5398 75.4395 79.0996C75.1449 79.5578 74.7862 79.8633 73.6976 80.627C73.1727 81.0088 72.5065 81.5433 72.2248 81.8232C71.6358 82.4215 70.6241 82.7395 69.3945 82.7395C66.5387 82.7268 66.0391 80.2196 67.8193 74.9127C68.5238 72.8255 69.8813 70.1019 70.6368 69.3003C71.5332 68.333 72.814 68.4475 73.8128 69.5674C74.3763 70.2166 74.338 70.5475 73.5697 71.5401C73.0317 72.2273 70.9826 76.6053 70.9059 77.2163C70.8289 77.9672 71.0723 78.0053 72.276 77.4199C73.5568 76.7963 74.9143 75.88 75.926 74.9636C76.8994 74.0727 79.1662 71.451 79.9602 70.3055C81.0488 68.7274 82.2013 67.9766 83.5333 67.9766C84.8523 67.9766 85.8768 68.613 86.8502 70.0512C87.1576 70.4965 87.3496 70.6492 87.5801 70.6492C87.8619 70.6492 87.9771 70.4965 88.3999 69.5802C88.7457 68.8547 89.0017 68.4857 89.181 68.4221C89.8214 68.2185 91.3197 69.593 91.6527 70.662C91.7679 71.0564 91.7424 71.3365 91.5374 72.2019C90.9227 74.7217 88.5023 82.7523 88.0924 83.6177C87.6954 84.4703 87.6699 84.585 87.8492 84.7758C88.0924 85.0431 87.9643 85.1704 87.5801 85.0813C87.2088 84.9922 87.2088 85.0303 87.5289 85.6667C87.7595 86.1121 87.7595 86.1756 87.5801 86.3539C87.2984 86.6466 87.1576 86.6084 87.2343 86.2775C87.2984 86.0102 87.2729 86.0102 86.9014 86.3667C86.2226 86.9903 85.8897 87.8302 86.3124 87.8302C86.4148 87.8302 86.5044 87.8938 86.5044 87.9575C86.5044 88.0338 86.3636 88.0848 86.1843 88.0848C85.8897 88.0848 85.8768 88.1102 85.9409 88.6321C86.0049 89.0646 85.9409 89.2938 85.6336 89.8918C85.1469 90.8082 84.545 91.5972 84.481 91.4064C84.3785 91.1009 84.1992 91.2919 84.1992 91.6991C84.1992 91.9663 84.1223 92.1573 84.007 92.2082C83.9046 92.2464 83.8151 92.4118 83.8151 92.5901C83.8151 92.7809 83.7253 92.9081 83.5588 92.9591C83.3795 93.0098 83.3028 93.1371 83.3028 93.3917C83.3028 93.9008 81.1896 95.6825 79.7809 96.357C77.9366 97.2224 77.1042 97.3115 75.132 96.8024ZM78.9869 96.2044C79.179 96.1281 79.3327 96.0133 79.3327 95.9498C79.3327 95.8735 79.2557 95.8479 79.1533 95.8861C79.0509 95.9242 78.7306 96.0261 78.4489 96.1025C78.1545 96.1788 77.9239 96.3061 77.9239 96.3698C77.9239 96.5225 78.3722 96.4461 78.9869 96.2044ZM85.0956 90.1974C85.0956 90.0954 85.0444 89.9682 84.9675 89.93C84.9035 89.8918 84.8396 89.9682 84.8396 90.1082C84.8396 90.2609 84.9035 90.3756 84.9675 90.3756C85.0444 90.3756 85.0956 90.2991 85.0956 90.1974ZM87.657 83.554C87.8107 83.0958 87.7466 82.854 87.5289 83.0704C87.4649 83.1342 87.3625 83.3759 87.3241 83.6049C87.2088 84.165 87.4649 84.1268 87.657 83.554ZM88.4127 81.1868C88.5663 80.6014 88.9762 79.1252 89.322 77.9034C89.6676 76.6816 90.1544 74.8617 90.3978 73.8563C90.6538 72.8637 90.9098 71.9345 90.9868 71.8073C91.2044 71.3873 91.1404 70.8021 90.8715 70.6492C90.5514 70.4837 90.4233 70.662 90.5385 71.1329C90.5769 71.3619 90.5002 71.7437 90.2951 72.2401C90.1287 72.6601 89.9493 73.4109 89.8981 73.8945C89.7574 75.2308 89.514 76.3125 89.0658 77.5216C88.8481 78.1198 88.5918 79.1252 88.5023 79.7488C88.4127 80.385 88.2463 81.0724 88.131 81.3013C87.9004 81.7469 87.8492 82.2304 88.0283 82.2304C88.0924 82.2304 88.2717 81.7595 88.4127 81.1868ZM67.6528 78.9598C67.6271 78.7434 67.5247 78.5908 67.3966 78.5652C67.2175 78.527 67.1663 78.6033 67.1663 78.9088C67.1663 79.2269 67.2175 79.3033 67.4352 79.3033C67.64 79.3033 67.6912 79.2397 67.6528 78.9598ZM67.8705 77.3052C67.9217 76.9617 68.0627 76.5799 68.1906 76.4398C68.7029 75.8925 69.7275 73.131 69.7275 72.3036C69.7275 72.1891 69.8427 71.9855 69.9966 71.8454C70.1502 71.7184 70.4062 71.3365 70.5601 71.0182C70.7265 70.7001 71.0723 70.2801 71.3155 70.0893C71.8664 69.6819 71.9176 69.3766 71.4565 69.3766C70.9954 69.3766 70.0861 70.3946 69.9068 71.1073C69.8556 71.3109 69.6508 71.7309 69.4457 72.0365C69.2025 72.4309 69.0873 72.7745 69.0873 73.1564C69.0873 73.5382 68.972 73.8691 68.7158 74.2763C68.5109 74.5944 68.2163 75.1798 68.0627 75.5872C67.9089 75.9817 67.704 76.5036 67.6016 76.7325C67.3327 77.3561 67.384 78.1452 67.6786 77.9671C67.7298 77.9288 67.8193 77.6361 67.8705 77.3052ZM82.6624 76.3125C82.8929 76.1471 83.6486 75.4853 84.34 74.8489C85.8128 73.4873 86.1971 72.8637 86.0819 71.922C85.9794 71.082 85.7615 70.7765 85.2878 70.7765C84.7243 70.7765 82.8417 72.711 82.2911 73.8563C81.8683 74.7472 81.4842 76.1599 81.5995 76.4526C81.7019 76.7325 82.1758 76.669 82.6624 76.3125ZM81.7147 74.0981C82.022 73.4491 82.483 72.6347 82.7264 72.291C83.1363 71.7184 83.3156 71.1583 83.0722 71.1583C83.021 71.1583 82.8672 71.3365 82.7393 71.5529C82.6112 71.7819 82.3935 72.0618 82.2654 72.1891C82.1246 72.3292 82.022 72.52 82.022 72.6347C82.022 72.7492 81.7914 73.2583 81.5097 73.7672C81.0615 74.569 80.9974 74.7854 81.0231 75.4344C81.036 75.9435 81.0615 76.0454 81.0872 75.7399C81.1255 75.4981 81.3944 74.76 81.7147 74.0981ZM83.8151 70.8402C83.8151 70.7383 83.7253 70.6492 83.6229 70.6492C83.5205 70.6492 83.4307 70.7383 83.4307 70.8402C83.4307 70.9419 83.5205 71.031 83.6229 71.031C83.7253 71.031 83.8151 70.9419 83.8151 70.8402Z" fill="#414141"/>
<path d="M4.35373 92.6101C3.32919 92.3556 2.67604 91.9484 1.53624 90.8666C0.153105 89.5429 -0.154257 88.8939 0.063458 87.774C0.345206 86.3358 2.08693 83.1286 3.23955 81.9452C4.20004 80.9526 4.00794 81.5506 2.77849 83.396C2.31744 84.0959 1.98447 84.7195 2.01009 84.8596C2.0357 85.0122 2.54798 84.3505 3.54689 82.8615C4.36654 81.6397 5.30143 80.2652 5.64722 79.807C6.30035 78.9161 7.59384 77.5163 7.76034 77.5163C7.81156 77.5163 7.40174 78.1526 6.83825 78.9417C4.36654 82.3778 2.85535 85.5086 2.84253 87.2521C2.82972 88.6903 3.49566 89.1357 5.22458 88.8683C6.44124 88.6775 9.771 87.7612 10.6034 87.3921C11.9738 86.7813 12.5757 85.7759 13.7795 82.0343C14.1381 80.9142 15.0602 78.1399 15.8286 75.8619C16.5842 73.5836 17.5319 70.6439 17.9289 69.3076C19.5041 64.0261 20.3238 61.8116 20.7592 61.6461C21.3611 61.417 23.1284 62.8298 23.6407 63.9623C24.0761 64.8914 23.9482 65.4005 22.6419 68.0985C22.1808 69.0402 21.566 70.5166 21.2843 71.382C20.9001 72.5147 20.6311 73.1001 20.2854 73.5073C19.8756 74.0036 19.8243 74.1437 19.8756 74.5637C19.9268 74.9327 19.8627 75.2127 19.6194 75.6836C19.2352 76.4217 18.2235 79.6544 17.8649 81.2706C17.5575 82.6961 17.5191 84.1597 17.8136 84.4396C18.121 84.7577 18.3643 84.6814 18.4796 84.236C18.6077 83.7397 19.0047 83.4977 19.6962 83.4977C20.1189 83.4977 20.1701 83.4595 20.1701 83.1924C20.1701 82.8869 20.1957 82.8869 20.5799 83.0142C21.0153 83.1668 21.0794 83.1161 22.0015 81.9324C22.4368 81.347 22.8979 81.2197 23.2694 81.5378C23.4485 81.7032 23.5512 81.7288 23.5895 81.6269C23.6152 81.5506 23.82 81.2197 24.0249 80.9016C24.4219 80.3162 25.4209 79.5143 27.2779 78.2799C27.8414 77.9109 28.7635 77.2107 29.3399 76.74C31.4657 74.9455 34.7825 71.3056 36.217 69.1549C38.2918 66.0623 39.4188 62.0408 38.8679 59.6609C38.4454 57.7391 36.819 56.0845 34.1678 54.8373C33.2459 54.3919 32.8873 54.2902 32.234 54.2774C31.6064 54.2647 31.3633 54.2011 31.1327 53.9847C30.7612 53.6283 30.6974 53.6411 30.1851 54.1374L29.7624 54.5446L29.519 54.2519C29.3911 54.0992 29.2629 53.8956 29.2246 53.8065C29.1477 53.5647 25.4209 53.6157 23.6919 53.8956C19.3889 54.5702 15.137 55.9828 12.2299 57.6882C11.0004 58.4009 9.0026 59.8135 8.84892 60.0681C8.63119 60.4117 9.2203 60.119 10.7571 59.1262C11.6792 58.5282 12.7294 57.9299 13.1008 57.7901C13.882 57.4974 14.4583 57.459 14.3814 57.701C14.2918 57.9555 13.1392 58.7571 11.8457 59.4573C9.69415 60.6279 8.84892 61.188 7.96525 62.0789C6.53089 63.5042 5.6088 65.6933 5.94177 66.9023C6.13387 67.6022 6.82544 68.3659 7.67069 68.8112C8.20858 69.0912 8.33664 69.2059 8.23418 69.3329C7.86279 69.7785 6.1851 69.2694 5.13494 68.404C3.87988 67.3858 3.06024 65.935 2.81691 64.3316C2.71445 63.6696 3.02182 62.2062 3.44446 61.3788C5.05811 58.2099 10.2833 54.6337 16.0463 52.7503C17.9673 52.1139 20.8104 51.5157 22.962 51.2867C24.9982 51.0703 28.8659 51.1976 30.2875 51.5285C33.0537 52.1775 35.4613 53.3355 37.4978 55.0155C38.3044 55.6901 39.6365 57.4718 40.3281 58.8081C41.3781 60.8317 42.2362 63.9241 42.4027 66.2913C42.4922 67.4114 42.4796 67.4621 42.2233 67.4621C41.8263 67.4621 41.3269 68.1495 40.5841 69.7022C40.0463 70.8475 39.8541 71.1402 39.5979 71.2039C39.3676 71.2547 39.0858 71.573 38.6888 72.2092C38.3685 72.7311 38.0996 73.2146 38.0996 73.3037C38.0996 73.6602 37.5233 74.5381 36.7164 75.3909C36.2427 75.9 35.6918 76.498 35.5127 76.7272C35.0771 77.2489 32.439 79.5653 32.3621 79.489C32.2214 79.3489 34.3472 76.9818 35.8457 75.5945C36.8702 74.6528 37.3311 73.9655 38.0355 72.362C38.3173 71.7384 38.8424 70.733 39.2137 70.1348C39.5852 69.5368 40.1487 68.5439 40.4688 67.9077C41.5062 65.8841 40.3407 67.564 38.202 71.1656C36.2939 74.4111 32.4774 78.4707 27.9695 82.0469C23.7305 85.4069 17.0708 88.6393 9.89906 90.8156C7.5042 91.5409 7.81156 91.7445 10.3473 91.1209C10.898 90.9811 12.4604 90.472 13.8051 90.001C16.5586 89.0212 18.3003 88.4611 18.5821 88.4611C18.9919 88.4611 18.7101 88.7412 17.9033 89.1485C15.867 90.1539 8.93856 92.2918 6.50526 92.6483C5.39108 92.8137 5.17335 92.8137 4.35373 92.6101ZM15.867 84.4905C15.9695 84.1213 16.1872 83.2178 16.3665 82.4797C16.5586 81.6269 16.9428 80.5707 17.391 79.6034C17.788 78.7507 18.2363 77.6689 18.3772 77.1854C18.5308 76.7018 19.0815 74.9709 19.6194 73.3547C20.1573 71.7256 20.5543 70.3512 20.5159 70.313C20.3878 70.1729 20.0036 71.1148 18.6845 74.8183C18.0186 76.6891 17.1605 79.018 16.7891 79.9979C15.8926 82.327 15.5725 83.3197 15.4444 84.1469C15.2523 85.305 15.5725 85.5595 15.867 84.4905ZM20.8104 84.5031C20.8104 84.3123 20.7592 84.2614 20.6055 84.3123C20.4903 84.3505 20.375 84.3886 20.3494 84.3886C20.3238 84.3886 20.2982 84.4778 20.2982 84.5794C20.2982 84.6814 20.4134 84.7705 20.5543 84.7705C20.7336 84.7705 20.8104 84.6814 20.8104 84.5031ZM22.1936 83.6506C22.2191 83.4595 22.1679 83.3704 22.0398 83.3704C21.8991 83.3704 21.835 83.4851 21.835 83.7015C21.835 84.0959 22.1296 84.0578 22.1936 83.6506ZM22.7314 83.3069C22.7314 83.1033 22.6547 82.9888 22.5395 82.9888C22.4242 82.9888 22.3473 83.1033 22.3473 83.3069C22.3473 83.5105 22.4242 83.625 22.5395 83.625C22.6547 83.625 22.7314 83.5105 22.7314 83.3069ZM17.4038 81.3598C17.5191 80.927 17.4294 80.698 17.2245 80.9016C17.1605 80.9651 17.0581 81.2197 17.0196 81.4489C16.9044 82.0215 17.2373 81.9324 17.4038 81.3598ZM27.1881 80.7743C27.7518 80.2524 27.6492 79.9725 26.9833 80.2017C26.5222 80.3543 26.279 80.698 26.3943 81.0033C26.5094 81.296 26.6503 81.2578 27.1881 80.7743ZM29.122 79.0943C29.4037 78.7507 29.4806 78.2799 29.2758 78.2799C29.1477 78.2799 28.4944 79.0052 28.4944 79.1581C28.4944 79.2854 28.6354 79.4252 28.7635 79.4252C28.8147 79.4252 28.9812 79.2726 29.122 79.0943ZM21.438 68.1113C21.6685 67.5259 21.8221 67.0168 21.7838 66.9786C21.6813 66.8895 20.8232 68.7221 20.7336 69.244C20.6568 69.664 20.6696 69.6766 20.8361 69.4348C20.9385 69.2948 21.2074 68.6968 21.438 68.1113ZM30.3899 53.1194C30.4156 53.0175 30.313 52.9539 30.1082 52.9539C29.7752 52.9539 29.5959 53.1066 29.7369 53.2592C29.8776 53.3993 30.3259 53.2848 30.3899 53.1194Z" fill="#414141"/>
<path d="M127.377 91.9594C126.993 91.8577 126.391 91.6032 126.033 91.4122C124.701 90.6997 123.215 88.8033 122.818 87.3143C122.716 86.9325 122.409 85.9526 122.152 85.1508C121.691 83.7254 121.512 82.4528 121.717 82.1091C121.883 81.8418 122.332 82.1601 122.626 82.7327C122.767 83.0127 123.036 83.6618 123.215 84.1707C123.996 86.3217 124.816 87.4288 126.071 88.0396C126.724 88.3579 126.916 88.3961 128.069 88.3833C131.091 88.3451 134.985 87.2506 137.994 85.5962C141.785 83.509 146.792 79.8693 149.277 77.4003C150.711 75.9876 151.057 75.4022 151.057 74.4349C151.057 72.9713 150.417 72.6914 146.331 72.3605C144.09 72.1823 142.874 72.2332 142.054 72.5387C141.516 72.7424 139.249 72.946 138.532 72.8568C138.161 72.8187 136.56 72.8822 134.985 73.0095C132.449 73.2131 131.911 73.2131 130.233 73.0732C129.196 72.9841 128.018 72.8187 127.634 72.7296C125.994 72.2968 124.586 71.1769 123.933 69.777C123.446 68.7334 123.395 67.1297 123.779 65.4881C124.47 62.51 127.172 58.4122 130.63 55.1413C134.908 51.0816 138.993 48.6508 142.822 47.8745C145.819 47.2635 147.779 47.7217 149.623 49.4526C150.98 50.7124 151.416 51.7943 151.237 53.4232C151.147 54.2887 151.006 54.3013 150.865 53.4359C150.763 52.8761 150.545 52.9143 150.545 53.4869C150.545 53.7033 150.276 54.6578 149.956 55.6123C149.431 57.165 149.392 57.3939 149.508 57.8139C149.661 58.2975 150.007 58.603 150.852 58.9976C151.313 59.2138 151.326 59.2394 151.07 59.3285C150.711 59.4683 149.661 59.2647 149.021 58.9466C148.381 58.6158 147.625 57.7376 147.522 57.1903C147.42 56.6559 147.638 55.8031 148.112 54.8742C149.085 52.9396 149.072 50.7889 148.073 50.267C146.895 49.6306 142.566 51.0179 140.684 52.6469C140.223 53.0415 139.454 53.5504 138.955 53.7796C138.109 54.174 137.687 54.5177 136.547 55.7395C136.291 56.0323 135.791 56.4395 135.446 56.6431C135.1 56.8595 134.664 57.2539 134.485 57.5466C134.229 57.9158 133.934 58.1576 133.422 58.374C132.769 58.6667 132.244 59.0993 132.231 59.3666C132.231 59.4176 132.078 59.583 131.898 59.7229C131.668 59.9011 131.591 60.0666 131.642 60.2448C131.745 60.6266 131.527 60.9066 130.758 61.4157C129.478 62.2682 128.197 63.9101 127.211 66.0098C126.097 68.3897 126.519 69.8787 128.504 70.5407C129.337 70.8206 129.439 70.8206 137.418 70.8332C144.308 70.846 145.704 70.8841 147.023 71.0752C149.969 71.4952 151.634 72.0932 152.492 73.0351C152.991 73.5821 153.49 74.9059 153.49 75.6567C153.478 76.853 152.696 78.7875 151.685 80.0601C150.314 81.8164 147.241 84.8581 146.395 85.3034C146.178 85.4179 146.178 85.4054 146.434 85.0363C146.588 84.8199 147.433 83.8654 148.316 82.8982C149.187 81.9437 149.905 81.0909 149.905 81.0018C149.905 80.6965 149.162 81.0783 148.649 81.6254C148.381 81.9181 147.843 82.5035 147.458 82.911C144.206 86.4362 139.211 89.1979 133.768 90.4833C132.09 90.8777 129.644 91.2595 128.76 91.2595C128.453 91.2595 128.274 91.3105 128.325 91.3868C128.453 91.6032 130.784 91.5269 132.423 91.2723C134.831 90.8777 136.086 90.8777 134.857 91.2723C132.487 92.0232 128.812 92.3541 127.377 91.9594ZM125.841 67.5116C125.905 67.2317 126.007 66.5317 126.071 65.9335C126.161 65.1954 126.315 64.5844 126.571 64.0245C127.07 62.9556 127.198 62.3701 126.942 62.3701C126.827 62.3701 126.442 62.9428 125.994 63.8082L125.251 65.2336V66.3789C125.251 68.1861 125.546 68.7462 125.841 67.5116Z" fill="#414141"/>
<path d="M157.652 88.9483C155.961 88.3501 154.745 86.5812 154.053 83.7557C153.746 82.4577 153.707 82.0503 153.707 80.2559C153.707 78.4742 153.758 77.9778 154.117 76.2853C154.629 73.8416 155.359 71.3472 156.256 68.9929C157.537 65.6457 157.754 65.0477 157.677 64.9712C157.639 64.933 155.884 64.984 153.784 65.0985C149.519 65.3148 148.572 65.2513 149.007 64.7294C149.148 64.564 149.058 64.5386 148.316 64.5386C147.432 64.5386 147.33 64.4876 147.688 64.2203C147.88 64.0804 147.854 64.0423 147.406 63.915C147.124 63.8259 146.228 63.7114 145.421 63.6477C143.872 63.5332 143.411 63.4187 143.129 63.0878C142.873 62.7823 143.078 62.6296 143.808 62.6296C144.166 62.6296 145.447 62.5405 146.638 62.4386C147.842 62.3369 150.749 62.1715 153.105 62.0568C155.462 61.9423 157.741 61.815 158.164 61.7641L158.92 61.6752L159.304 60.7842C159.842 59.5114 161.199 56.5207 161.801 55.2226C162.326 54.1408 162.8 53.5938 163.21 53.5938C163.517 53.6063 164.529 54.0901 164.862 54.3828C165.08 54.599 165.144 54.8028 165.144 55.2863C165.144 55.8462 165.195 55.9609 165.592 56.3171C165.835 56.5463 166.04 56.8516 166.04 56.9917C166.04 57.1317 165.822 57.5771 165.553 57.9971C165.285 58.4043 164.759 59.3078 164.388 60.008L163.697 61.2552L164.26 61.1914C164.567 61.1533 166.13 61.0516 167.731 60.975C170.907 60.797 172.994 60.9115 174.172 61.3059C174.8 61.5223 174.8 61.5351 174.454 61.6496C173.98 61.8022 174.019 61.9679 174.582 62.0696C175.184 62.1841 176.196 63.075 176.093 63.4059C176.042 63.5585 176.106 63.6858 176.286 63.7749C176.567 63.9276 176.631 64.284 176.375 64.284C176.273 64.284 175.786 64.144 175.287 63.9785C174.774 63.8005 173.904 63.5967 173.34 63.5078C172.072 63.3296 167.603 63.4187 166.437 63.6604C165.682 63.8131 165.618 63.8131 165.451 63.5841C165.272 63.3549 165.272 63.3549 165.016 63.6095C164.759 63.9022 164.503 63.966 163.287 64.093C162.198 64.2077 162.044 64.2587 162.134 64.5258C162.173 64.6531 162.121 64.8313 162.006 64.9204C161.903 65.0093 161.814 65.1622 161.814 65.2639C161.814 65.353 161.724 65.4675 161.622 65.5185C161.353 65.6076 160.764 66.7656 160.725 67.2876C160.661 67.8984 160.034 69.7819 159.803 70.0365C159.688 70.1638 159.458 70.2655 159.291 70.2655C158.996 70.2655 158.996 70.2783 159.176 70.5456C159.445 70.9272 159.432 71.1946 159.137 71.5508L158.894 71.8563L158.791 71.4873C158.715 71.1436 158.689 71.1311 158.535 71.3472C158.228 71.7547 158.318 72.1109 158.779 72.3401C159.073 72.5055 159.099 72.5437 158.907 72.5055C158.664 72.4672 158.612 72.5055 158.612 72.8108C158.612 73.1163 158.574 73.1545 158.292 73.0908C158.023 73.04 157.972 73.0782 157.972 73.3453C157.972 73.5108 158.036 73.7146 158.113 73.7909C158.343 74.0199 157.754 75.5979 157.306 75.967C157.114 76.1324 156.947 76.3744 156.947 76.5143C156.947 76.7944 157.088 76.8198 157.306 76.6034C157.421 76.4889 157.46 76.5017 157.46 76.6671C157.46 77.227 157.165 78.1689 156.922 78.3343C156.717 78.487 156.691 78.5633 156.819 78.7925C156.935 78.9961 156.935 79.1106 156.819 79.2378C156.717 79.3523 156.666 80.2686 156.653 81.9996C156.627 84.5066 156.64 84.6213 156.986 85.6774C157.293 86.6319 157.729 87.4465 158.561 88.5537C158.932 89.0628 158.497 89.241 157.652 88.9483ZM156.179 78.0542C156.179 77.8887 156.128 77.7996 156.051 77.838C155.987 77.8762 155.923 78.1051 155.923 78.3215C155.923 78.627 155.961 78.6778 156.051 78.5379C156.115 78.436 156.179 78.2196 156.179 78.0542ZM156.691 75.6107C156.781 75.1907 156.819 74.8089 156.781 74.7579C156.666 74.6563 156.435 75.2926 156.346 75.967C156.23 76.8198 156.499 76.5398 156.691 75.6107ZM158.471 69.68C158.51 69.4764 158.484 69.4639 158.305 69.6165C158.061 69.8201 158.036 70.0493 158.267 69.9855C158.343 69.9474 158.446 69.8201 158.471 69.68ZM167.756 63.0622C168.14 62.9096 167.961 62.7569 167.423 62.7569C166.732 62.7569 166.283 62.8842 166.373 63.0241C166.45 63.1513 167.449 63.1767 167.756 63.0622ZM173.647 63.0241C173.686 62.9605 173.634 62.8714 173.519 62.8332C173.225 62.7185 170.202 62.7441 170.318 62.8586C170.51 63.0496 173.545 63.2023 173.647 63.0241Z" fill="#414141"/>
<path d="M19.7971 88.1698C19.7203 88.0935 19.6562 87.9536 19.6562 87.8645C19.6562 87.6863 20.5399 87.139 21.2059 86.9101C21.4492 86.8335 21.6669 86.719 21.7053 86.6681C21.7949 86.5408 23.7417 85.3573 24.4588 85.0009C24.7405 84.861 25.3168 84.4664 25.7396 84.1483C26.7896 83.3465 28.352 82.2266 28.4289 82.2266C28.4672 82.2266 28.4929 82.3792 28.4929 82.5828C28.4929 82.863 28.3136 83.0666 27.5837 83.6264C25.112 85.5482 22.0255 87.3808 21.8335 87.0627C21.7053 86.8463 21.4492 87.0118 21.4492 87.3045C21.4492 87.5972 21.129 87.8645 20.4759 88.1191C20.0789 88.2717 19.9124 88.2845 19.7971 88.1698Z" fill="#414141"/>
<path d="M190.087 86.7723C189.819 86.5559 189.37 86.1741 189.101 85.9451C188.448 85.3978 187.693 84.2651 187.462 83.5017C187.36 83.1706 187.244 82.2417 187.193 81.4526C187.091 79.7473 186.975 79.6454 186.117 80.4216C185.208 81.249 184.555 81.529 183.505 81.5162C181.468 81.5162 179.56 79.9509 178.971 77.7874L178.817 77.2273L178.1 77.9272C177.703 78.309 177.165 78.7672 176.922 78.9327C176.679 79.0981 176.026 79.6582 175.462 80.1673C174.348 81.1981 173.541 81.669 173.054 81.5543C172.196 81.3379 171.249 80.0782 170.877 78.6399C170.8 78.3091 170.66 78.0291 170.57 78.0291C170.493 78.0291 169.993 78.5382 169.469 79.149C168.431 80.3581 166.805 81.7453 165.972 82.1144C165.281 82.4325 164.448 82.4199 163.91 82.0888C163.27 81.6944 162.105 80.3581 161.708 79.569C161.272 78.6781 161.17 77.0619 161.464 75.662C161.733 74.4274 162.924 71.3094 163.693 69.8714C164.461 68.395 164.858 68.1023 165.614 68.4206C166.267 68.6877 166.805 69.2222 166.805 69.604C166.805 69.8332 166.856 69.884 167.048 69.8204C167.548 69.6678 167.445 70.0622 166.625 71.5386C165.165 74.1347 163.987 77.0874 163.987 78.1436C163.987 79.2763 164.794 79.0981 166.357 77.6219C167.74 76.3366 168.482 75.3311 170.647 71.933C171.594 70.4312 172.581 68.9932 172.837 68.7259C173.49 68.0132 174.002 68.0769 174.54 68.9041C174.668 69.0949 174.86 69.2478 174.963 69.2478C175.091 69.2478 175.116 69.3495 175.052 69.6804C174.988 70.0368 175.027 70.1641 175.244 70.3421C175.398 70.4694 175.513 70.6476 175.513 70.7367C175.513 70.9276 174.694 72.4421 174.22 73.1295C173.823 73.6893 173.746 74.0074 173.9 74.4402C173.964 74.6438 173.912 74.822 173.733 75.051C173.554 75.2802 173.464 75.5729 173.464 75.9419C173.464 76.2347 173.413 76.5274 173.336 76.5655C173.144 76.68 173.182 77.4691 173.4 77.6473C173.502 77.7236 173.695 77.7618 173.848 77.711C174.233 77.5838 176.128 75.9929 178.177 74.0583C179.778 72.544 179.944 72.3276 180.457 71.284C181.84 68.4969 183.774 66.7916 185.31 67.0205C186.092 67.135 187.616 68.0388 188.461 68.8913C188.884 69.3113 189.242 69.6422 189.268 69.6168C189.281 69.5912 189.485 69.0186 189.716 68.3568C190.625 65.7352 194.506 57.7682 195.825 55.783C197.093 53.8994 198.245 52.7031 198.809 52.7031C199.372 52.7031 199.987 52.983 200.589 53.5175C200.986 53.874 201.114 54.0904 201.165 54.5104C201.204 54.8157 201.28 55.2738 201.332 55.5284C201.409 55.9866 201.383 56.0247 200.461 56.9282C199.206 58.1501 197.579 60.5809 196.555 62.7572C195.325 65.3789 195.069 65.8497 194.788 65.9897C194.647 66.066 194.506 66.1424 194.48 66.1552C194.455 66.168 194.531 66.3334 194.647 66.4988C194.967 66.9824 194.916 67.1734 194.48 67.1096C194.122 67.0587 194.109 67.0968 193.584 68.4206C193.302 69.1715 193.058 69.8332 193.058 69.9095C193.058 69.9731 192.802 70.5713 192.482 71.2331C192.162 71.8948 191.816 72.7984 191.714 73.2311C191.599 73.6639 191.394 74.3639 191.266 74.7839C190.958 75.7511 190.42 78.8182 190.241 80.6636C190.075 82.318 190.203 83.7688 190.702 85.805C190.869 86.5049 191.009 87.1032 191.009 87.1413C191.009 87.3324 190.484 87.1285 190.087 86.7723ZM166.881 80.5873C167.509 80.1291 168.303 79.3017 168.124 79.3017C168.047 79.3017 167.624 79.5944 167.189 79.9381C166.754 80.2945 166.344 80.5745 166.28 80.5745C166.216 80.5745 166.164 80.6636 166.164 80.7653C166.164 81.0454 166.318 81.007 166.881 80.5873ZM184.862 80.3071C185.951 79.6454 187.385 78.1564 186.937 78.1564C186.604 78.1564 184.094 80.1926 184.094 80.46C184.094 80.6508 184.388 80.5873 184.862 80.3071ZM177.05 78.3728C178.075 77.7746 178.843 76.9346 178.843 76.4001V75.9673L178.318 76.3873C178.023 76.6165 177.268 77.3036 176.653 77.9146C175.488 79.0471 175.167 79.5562 175.936 79.0599C176.154 78.9073 176.666 78.6018 177.05 78.3728ZM169.046 78.2965C168.943 78.2074 168.469 78.7546 168.469 78.9708C168.469 79.0471 168.623 78.9454 168.802 78.7418C168.982 78.5508 169.084 78.3472 169.046 78.2965ZM184.094 77.6473C185.029 77.1763 186.425 75.4202 187.398 73.4857C188.038 72.2257 188.218 71.5639 188 71.1695C187.577 70.3805 186.335 70.1385 185.643 70.724C185.131 71.1567 184.017 72.8367 183.287 74.2747C181.737 77.3546 182.057 78.6655 184.094 77.6473ZM181.853 76.7947C181.853 75.6874 182.121 74.7457 182.634 74.0711C182.813 73.8294 183.159 73.2565 183.389 72.7984C183.633 72.3402 183.966 71.8695 184.145 71.755C184.542 71.4876 185.4 70.1895 185.349 69.9095C185.272 69.4896 185.003 69.6422 184.657 70.3295C184.452 70.724 184.094 71.1949 183.851 71.3731C183.62 71.5512 183.3 71.9586 183.146 72.2895C183.005 72.6075 182.749 73.0529 182.608 73.2565C182.454 73.4729 182.173 74.0074 181.968 74.4655C181.673 75.1401 181.609 75.4838 181.597 76.311C181.597 77.1891 181.686 77.7746 181.814 77.7746C181.84 77.7746 181.853 77.3292 181.853 76.7947ZM186.143 69.6932C186.143 69.5912 186.028 69.5023 185.887 69.5023C185.746 69.5023 185.631 69.5912 185.631 69.6932C185.631 69.7951 185.746 69.884 185.887 69.884C186.028 69.884 186.143 69.7951 186.143 69.6932ZM195.108 65.0097V64.7425L194.839 65.0097C194.685 65.1497 194.608 65.3408 194.659 65.4171C194.788 65.6333 195.108 65.3408 195.108 65.0097ZM196.568 61.9045C197.157 60.7208 197.823 59.5373 198.04 59.27C198.258 58.9901 198.617 58.4682 198.834 58.0865C199.052 57.7047 199.372 57.3101 199.526 57.2084C199.692 57.0937 200.013 56.7374 200.23 56.3938C200.448 56.0503 200.704 55.7448 200.781 55.7192C200.896 55.681 200.896 55.6047 200.794 55.4267C200.627 55.1466 200.102 55.0193 200.102 55.2738C200.102 55.732 199.462 56.7502 199.027 57.0048C198.694 57.1956 198.476 57.4755 198.245 58.01C198.066 58.4046 197.835 58.8246 197.746 58.9391C197.182 59.5501 195.389 63.368 195.364 64.0044C195.351 64.2206 195.671 63.6736 196.568 61.9045Z" fill="#414141"/>
<path d="M57.12 83.299C59.0281 82.8155 59.5021 82.6628 60.5778 82.1537C61.6407 81.6574 62.7165 80.8302 62.3195 80.8302C62.2171 80.8302 61.4231 81.1736 60.5266 81.5936C57.6578 82.9427 56.0571 83.1463 54.4176 82.3701C53.5597 81.9627 53.3035 81.7209 53.0218 81.0464C52.8169 80.5628 52.7657 79.8119 52.9322 79.8119C52.9834 79.8119 53.278 80.0156 53.5852 80.2573C54.4945 80.9828 55.6344 81.1483 57.12 80.7664C58.1958 80.4865 60.3728 79.392 61.0132 78.8065C61.4614 78.3993 61.5255 78.272 61.4359 78.0175C61.3719 77.8648 61.1542 77.6738 60.9491 77.6103C60.7443 77.5465 60.4754 77.4067 60.3601 77.2922C60.232 77.1903 59.8605 77.063 59.5276 76.9995C58.5159 76.8084 56.5949 75.8286 56.2874 75.3323C56.1466 75.1031 56.0314 74.8104 56.0314 74.6959C56.0314 74.3522 55.8778 74.416 55.3783 74.9248C54.072 76.2867 50.0762 79.3284 49.0516 79.7484C48.3345 80.0411 47.3869 80.6519 47.0154 81.0719C46.7977 81.3009 46.7977 81.3391 46.977 81.4156C47.3228 81.5429 50.6268 79.5702 53.4059 77.5721C54.5457 76.7575 51.3313 79.7484 49.9481 80.792C49.2438 81.3265 48.2705 81.9501 47.771 82.1919C46.6312 82.7391 45.978 82.7135 44.5692 82.0392C43.0324 81.3137 42.8404 81.0973 41.4829 78.552C40.7144 77.1393 41.4189 74.0213 43.0581 71.5779C43.6985 70.6106 44.7486 69.5035 45.6836 68.8033C47.1051 67.7344 49.1414 67.4035 50.4732 68.0271C51.2672 68.3961 51.549 68.7652 51.549 69.4269C51.549 69.7578 51.6388 70.0252 51.8052 70.2034L52.0613 70.4833L51.7412 71.0816C51.5618 71.4124 51.4208 71.7305 51.4208 71.8069C51.4208 72.0233 51.7283 71.9216 52.087 71.5779L52.4454 71.2342V71.6542C52.4454 72.5068 51.6771 73.4996 50.0762 74.6831C49.1926 75.3448 48.3345 75.7904 47.7325 75.9303C47.3995 75.994 47.2459 75.9559 46.9387 75.7013L46.5543 75.3704L47.2971 75.1031C48.5139 74.6449 51.0367 72.8632 51.0367 72.4432C51.0367 72.1887 50.819 72.2906 49.3974 73.2451C47.771 74.3268 47.1051 74.594 45.786 74.7087L44.8255 74.785L44.7869 75.3448C44.7614 75.6632 44.6719 75.9812 44.5692 76.045C44.454 76.1339 44.3773 76.5285 44.3516 77.1393L44.3132 78.0812L44.8255 78.3739C46.58 79.3666 50.025 77.7885 54.8532 73.7796C55.7113 73.0541 55.7753 72.9777 55.7753 72.4942C55.7753 71.4634 55.993 71.0816 57.2736 69.7453C58.7335 68.2435 59.8605 67.3653 61.0901 66.7799C63.3824 65.6854 64.7273 65.9527 65.5213 67.6581C66.1486 68.9816 66.1743 70.7761 65.5597 70.7761C65.4572 70.7761 65.009 70.6616 64.5734 70.5087C62.7165 69.8851 60.6162 70.8142 59.1179 72.9268C58.4646 73.8687 58.4904 73.9068 60.2192 74.4667C63.5105 75.5484 64.5222 76.5285 64.5222 78.6667C64.5222 79.8119 64.3686 80.181 63.4848 80.9574C62.55 81.7847 62.1914 82.0392 61.3207 82.4846C59.8862 83.1973 59.1434 83.4009 57.6963 83.4518L56.3515 83.49L57.12 83.299ZM47.8094 72.4814C49.7175 71.5523 50.1531 70.038 48.3729 70.5087C47.3355 70.7888 45.5938 72.3923 45.8627 72.8251C45.9908 73.0415 47.0282 72.8632 47.8094 72.4814ZM61.9865 68.918C62.3707 68.8033 62.9599 68.7398 63.4465 68.7652C64.3429 68.8034 64.6504 68.5872 64.0357 68.358C63.2929 68.0781 61.9865 68.3198 61.2821 68.8671C60.8851 69.1726 61.103 69.198 61.9865 68.918Z" fill="#414141"/>
<path d="M206.431 83.0672C205.138 82.66 203.882 81.2855 203.562 79.9236C203.357 79.0838 203.46 77.6456 203.818 76.3856C203.959 75.8767 204.062 75.4311 204.036 75.393C203.998 75.3676 203.844 75.5075 203.703 75.6985C202.627 77.073 200.745 78.5619 197.876 80.331C196.877 80.9418 195.929 81.5401 195.763 81.6673C194.892 82.2909 196.531 81.769 198.465 80.8146C199.016 80.5346 199.951 79.9492 200.566 79.4782C201.167 79.0201 201.693 78.6764 201.731 78.7146C201.91 78.8928 201.155 79.72 200.258 80.331C199.72 80.7001 198.939 81.3109 198.542 81.6927C197.94 82.2654 197.671 82.4182 197.069 82.5581C193.714 83.3471 192.344 81.6545 193.189 77.7601C193.88 74.5404 195.545 70.6332 196.826 69.2715C197.645 68.3933 198.837 68.4571 199.81 69.4369C200.489 70.0987 200.501 70.4042 199.925 71.2568C199.285 72.1731 197.146 76.653 197.069 77.2384C196.967 77.9893 197.248 78.0147 198.542 77.3785C199.861 76.7293 201.321 75.7113 202.32 74.744C203.088 74.0057 205.15 71.6386 206.354 70.1115C207.327 68.8896 208.442 68.1134 209.633 67.846C210.106 67.7444 210.414 67.7569 211.118 67.9226C211.9 68.1134 212.079 68.1134 212.54 67.9733C213.027 67.8079 213.103 67.8207 213.603 68.0752C213.884 68.2407 214.397 68.5588 214.73 68.8005C215.204 69.1442 215.345 69.3352 215.409 69.7168C215.46 69.9842 215.562 70.3788 215.639 70.5824C215.729 70.7986 215.793 71.5241 215.793 72.2115C215.793 73.7895 215.831 73.8277 217.227 73.3821C218.162 73.0894 221.672 71.2442 222.093 70.837C222.195 70.7351 222.287 70.6459 222.297 70.6459C222.311 70.6459 222.515 70.595 222.746 70.5315L223.156 70.4042L222.914 70.7479C222.389 71.4606 221.672 72.1477 221.171 72.4023C220.325 72.8351 219.493 73.4459 219.724 73.4459C219.84 73.4459 220.325 73.2423 220.814 73.0005C221.914 72.4276 221.428 72.8223 219.826 73.8149C218.225 74.795 217.765 75.0239 216.651 75.3548C215.677 75.6475 215.524 75.8002 216.049 75.8893C216.6 76.004 217.534 75.762 218.661 75.2275C219.251 74.9476 219.763 74.7312 219.789 74.7694C219.866 74.8457 218.598 75.7748 218.046 76.0547C217.573 76.2965 215.511 76.7547 214.909 76.7547C214.704 76.7547 214.435 76.6658 214.307 76.5511C214.089 76.3602 214.064 76.373 213.884 76.8056C213.782 77.0602 213.628 77.2638 213.564 77.2638C213.487 77.2638 213.424 77.3147 213.424 77.391C213.424 77.6074 212.168 79.351 211.643 79.8729C211.08 80.4074 211.016 80.5346 211.297 80.5982C211.438 80.6237 211.387 80.751 211.106 81.0819C210.862 81.349 210.772 81.4128 210.862 81.2473C210.965 81.0182 210.965 80.9546 210.824 80.9546C210.606 80.9546 210.324 81.2727 210.119 81.7562C209.953 82.1509 209.428 82.4945 208.429 82.8764C207.481 83.2326 207.058 83.2708 206.431 83.0672ZM208.595 82.2144C209.492 81.7562 211.733 79.4147 212.77 77.8492C213.334 76.9838 213.654 76.373 213.616 76.2583C213.513 76.0166 213.347 76.1948 212.207 77.7729C211.233 79.1346 209.479 80.9037 208.493 81.5401C207.327 82.3035 207.404 82.8126 208.595 82.2144ZM207.161 79.8219C208.595 78.9056 211.63 75.1258 211.63 74.2603C211.63 74.1458 211.515 73.8659 211.387 73.6495C211.093 73.1659 210.734 72.0076 210.734 71.5241C210.734 71.015 210.568 70.9896 210.03 71.4096C209.774 71.6132 209.453 71.8168 209.312 71.855C209.172 71.9059 208.941 72.1731 208.787 72.4658C208.647 72.7585 208.39 73.1785 208.224 73.3949C208.057 73.6113 207.917 73.9168 207.917 74.0567C207.917 74.2095 207.865 74.3368 207.801 74.3368C207.648 74.3368 207.289 75.3039 206.546 77.6584C205.765 80.2037 205.88 80.6363 207.161 79.8219ZM193.829 78.9056C193.829 78.6001 193.778 78.5238 193.611 78.5619C193.471 78.5873 193.368 78.7402 193.342 78.9566C193.304 79.2365 193.355 79.3 193.56 79.3C193.778 79.3 193.829 79.2237 193.829 78.9056ZM194.021 77.3657C194.072 76.9966 194.213 76.5766 194.329 76.4366C194.982 75.6857 195.468 74.4513 195.776 72.8095C195.853 72.4023 196.032 71.9823 196.198 71.7915C196.365 71.6132 196.621 71.2314 196.775 70.9387C196.928 70.646 197.248 70.2641 197.492 70.0733C197.735 69.8951 197.927 69.6533 197.927 69.5514C197.927 69.3352 197.428 69.3224 197.159 69.5388C196.775 69.8441 196.147 70.7479 196.057 71.1041C196.019 71.3077 195.814 71.7405 195.609 72.0586C195.353 72.4658 195.238 72.8095 195.238 73.1785C195.238 73.5222 195.135 73.8531 194.982 74.0823C194.7 74.4767 194.329 75.2913 193.88 76.5129C193.573 77.3657 193.509 77.7857 193.663 77.9383C193.855 78.1291 193.932 77.9893 194.021 77.3657ZM215.601 72.8476C215.601 72.5931 215.562 72.5423 215.46 72.644C215.37 72.7331 215.345 72.8858 215.383 72.9877C215.511 73.2932 215.601 73.2295 215.601 72.8476ZM214.832 72.2115C214.832 72.046 214.781 71.9187 214.717 71.9187C214.589 71.9187 214.448 72.3641 214.448 72.8095L214.461 73.1278L214.64 72.8095C214.742 72.6312 214.819 72.3641 214.832 72.2115Z" fill="#414141"/>
<path d="M28.7898 82.2933C28.7 82.0513 28.5976 82.1532 29.9039 81.3004C31.3383 80.3841 32.0938 80.0025 32.0042 80.2568C31.8506 80.6261 29.3276 82.4841 28.9563 82.4841C28.9051 82.4841 28.841 82.395 28.7898 82.2933Z" fill="#414141"/>
<path d="M93.7871 81.8856C93.6718 81.8603 93.5311 81.7202 93.4925 81.5803C93.4158 81.3512 93.3901 81.3512 93.0314 81.5294C92.5832 81.7712 92.4679 81.7202 92.34 81.2495C92.3015 81.0459 92.135 80.7657 91.9942 80.6131C91.6739 80.2822 91.7125 79.8622 92.2248 78.2587C92.6473 76.8969 95.3368 70.1645 95.8362 69.1591C96.3997 68.0646 96.5662 68.0392 97.6165 68.8918C97.9108 69.121 98.3207 69.4137 98.5384 69.5282C98.7561 69.6426 98.9354 69.8337 98.9354 69.9354C98.9354 70.0501 98.7561 70.5717 98.5512 71.1062C98.3336 71.6407 98.1926 72.1117 98.2312 72.1498C98.2695 72.2008 98.3464 72.1754 98.3976 72.0989C98.4488 72.0225 98.6153 71.9209 98.7689 71.8699C98.9228 71.8189 99.4862 71.3098 100.024 70.7372C101.305 69.3499 102.675 68.179 103.444 67.7974C103.968 67.5301 104.135 67.5047 104.545 67.6192C105.275 67.81 105.928 68.5227 106.325 69.5535L106.658 70.4445L106.376 71.2207C105.313 74.0206 104.57 76.4769 104.57 77.1514C104.57 77.546 104.622 77.6477 104.814 77.6477C105.454 77.6477 108.733 75.128 111.358 72.6208C113.907 70.1773 114.649 69.5282 115.226 69.2354L115.751 68.9683L115.456 69.4646C114.931 70.3044 114.457 70.9789 114.252 71.1444C114.099 71.2717 114.06 71.4371 114.124 71.7426C114.201 72.137 114.124 72.2517 112.408 74.0462C109.642 76.9606 108.515 77.9404 105.851 79.7349C105.121 80.2312 104.455 80.6766 104.378 80.7276C104.302 80.7913 104.302 80.8676 104.404 80.9693C104.737 81.3002 107.26 79.684 110.244 77.2152C112.037 75.726 112.254 75.548 112.254 75.6624C112.254 75.9424 108.515 79.5567 108.22 79.5567C108.182 79.5567 107.849 79.7987 107.478 80.104C106.223 81.1222 104.417 81.9748 103.52 81.9748C102.79 81.9748 102.201 81.5422 101.689 80.6131C101.202 79.7477 101.202 79.7477 101.292 78.6022C101.369 77.3806 101.791 75.5224 102.329 73.9697C102.854 72.4297 102.611 72.5063 100.78 74.4025C98.2824 76.9988 95.5928 80.2312 95.7979 80.4223C95.8491 80.473 96.118 80.2568 96.3997 79.9385C96.6943 79.6204 96.8608 79.4804 96.7839 79.6332C96.5278 80.1168 95.4776 81.1857 94.8757 81.5803C94.2865 81.9748 94.197 82.0003 93.7871 81.8856ZM95.7467 79.4932C96.1949 78.9968 97.1425 77.9404 97.8596 77.1386C98.5641 76.337 100.024 74.7461 101.087 73.6006C102.265 72.3534 103.034 71.4371 103.034 71.2717C103.034 71.0681 102.982 71.0427 102.816 71.1444C102.086 71.5262 95.3752 78.9205 94.85 79.9004C94.6835 80.2312 94.6709 80.4858 94.8245 80.4223C94.8757 80.4095 95.2982 79.9767 95.7467 79.4932ZM111.973 73.9061C112.011 73.7535 111.96 73.6897 111.845 73.7279C111.755 73.7661 111.653 73.8933 111.64 74.008C111.601 74.1607 111.653 74.2242 111.768 74.1861C111.857 74.1479 111.96 74.0206 111.973 73.9061ZM113.215 72.6843C113.471 72.4172 113.522 72.3025 113.381 72.3025C113.279 72.3025 113.1 72.4044 112.997 72.5317C112.46 73.1425 112.639 73.2825 113.215 72.6843Z" fill="#414141"/>
<path d="M85.1396 78.323C85.2549 78.2085 85.383 78.1448 85.4342 78.183C85.5623 78.3102 85.3575 78.5394 85.127 78.5394C84.9348 78.5394 84.9348 78.5266 85.1396 78.323Z" fill="#414141"/>
<path d="M45.1928 75.5443C45.5 75.3153 46.0764 75.29 46.0123 75.5189C45.9739 75.5953 45.7305 75.6844 45.4488 75.7098C44.9751 75.7353 44.9622 75.7225 45.1928 75.5443Z" fill="#414141"/>
<path d="M222.504 71.9599C222.683 71.629 223.975 70.4071 223.822 70.7127C223.631 71.0817 222.644 72.176 222.504 72.176C222.426 72.176 222.426 72.0871 222.504 71.9599Z" fill="#414141"/>
<path d="M73.8962 68.1632C72.654 67.7177 72.3465 66.3432 73.1406 64.7779C73.5376 63.9761 74.242 63.3906 74.7798 63.3906C75.7915 63.3906 77.2643 64.0908 77.1107 64.498C77.0595 64.5997 77.0978 64.9052 77.1747 65.1725C77.3284 65.6561 77.3155 65.6688 76.4703 66.7378C75.2792 68.2524 74.831 68.5069 73.8962 68.1632ZM74.2675 64.8924C74.6005 64.218 74.6005 63.8997 74.2547 64.1797C73.9858 64.3961 73.4352 65.5669 73.5247 65.707C73.64 65.885 73.9217 65.5797 74.2675 64.8924Z" fill="#414141"/>
<path d="M200.131 68.1891C198.799 67.7691 198.479 66.1528 199.401 64.5875C200.08 63.442 200.694 63.2003 201.988 63.5821C202.82 63.8239 203.23 64.1675 203.268 64.6257C203.281 64.8165 203.333 65.1602 203.371 65.3766C203.448 65.7075 203.384 65.8601 202.961 66.3564C202.692 66.6745 202.282 67.1711 202.039 67.4638C201.796 67.7563 201.412 68.0874 201.181 68.1763C200.694 68.3801 200.707 68.3801 200.131 68.1891ZM200.477 64.8419C200.771 64.2183 200.809 64.0275 200.618 64.0275C200.412 64.0275 199.721 65.1856 199.721 65.542C199.721 65.8347 199.734 65.8347 199.964 65.6311C200.105 65.5039 200.336 65.1474 200.477 64.8419Z" fill="#414141"/>
<path d="M91.3778 37.4417C91.3778 34.0182 91.4291 31.1929 91.506 30.7985C91.8518 28.9403 93.2093 27.2096 95.0662 26.2551C96.68 25.4151 98.204 25.0714 100.637 24.9951L102.648 24.9188V24.117V23.3026H100.701C97.6917 23.3026 95.2584 22.8188 93.235 21.8134C90.1742 20.2863 88.2658 17.9064 87.3053 14.4066L86.9724 13.1848L86.9212 6.59239L86.8828 0L93.7728 0.0381798C100.484 0.0890864 100.688 0.101813 101.611 0.381798C104.582 1.27266 106.477 2.78714 107.578 5.16702C108.436 6.99966 108.449 7.13964 108.501 14.4829L108.552 21.1389H111.997H115.442L115.48 14.4193C115.532 8.0305 115.544 7.66144 115.8 6.74512C116.71 3.49983 118.759 1.48902 122.204 0.432705L123.331 0.0890864L130.221 0.0381798L137.098 0V5.95606C137.098 12.5103 137.021 13.4775 136.355 15.4374C134.626 20.5408 130.054 23.3026 123.305 23.3026H121.346V24.117V24.9188L123.369 24.9951C124.957 25.0461 125.649 25.1224 126.622 25.377C129.811 26.2042 131.886 28.0877 132.424 30.6457C132.577 31.333 132.616 32.7838 132.616 37.4673V43.4106H128.979C126.981 43.4106 124.765 43.3468 124.048 43.2833C119.271 42.787 116.3 40.8271 115.634 37.6963C115.493 37.0345 115.455 35.4055 115.455 30.0858V23.3026H111.997H108.539V29.9585C108.539 33.8402 108.488 36.9454 108.411 37.4289C107.988 40.038 105.862 41.9851 102.481 42.8379C100.688 43.2833 99.1004 43.4106 95.015 43.4106H91.3778V37.4417ZM99.9713 41.6671C100.778 41.3106 101.585 40.5597 101.956 39.8216C102.597 38.5616 102.648 38.0527 102.648 32.0457V26.4715L101.79 26.5604C99.2028 26.7896 97.5381 27.7569 96.6031 29.5895C95.9243 30.9258 95.8602 31.5238 95.8602 37.0217V42.0361L97.6276 41.9851C99.0747 41.947 99.4846 41.896 99.9713 41.6671ZM128.108 36.6399C128.057 31.4603 128.044 31.2311 127.775 30.5058C127.365 29.4113 126.955 28.7877 126.238 28.1131C125.213 27.1586 124.112 26.7386 122.217 26.5604L121.346 26.4715V32.0711C121.346 35.7492 121.397 37.8999 121.487 38.3452C121.704 39.3507 122.037 40.0252 122.639 40.6744C123.612 41.718 124.407 41.9851 126.571 41.9979L128.146 42.0107L128.108 36.6399ZM102.648 13.8084C102.648 7.54689 102.622 6.36331 102.443 5.70153C102.02 4.07252 101.201 3.06713 99.728 2.3417L98.7546 1.85809L95.0662 1.81991L91.3778 1.78173V6.79603C91.3778 12.8794 91.4805 13.6048 92.697 15.9847C93.427 17.3973 95.0022 18.9754 96.4494 19.7136C98.0504 20.5281 100.061 21.0117 102.302 21.1262L102.648 21.1389V13.8084ZM123.971 20.859C126.328 20.5026 128.108 19.6372 129.683 18.0846C130.592 17.181 130.887 16.7992 131.373 15.7938C132.501 13.5157 132.539 13.3248 132.59 7.1651L132.629 1.78173L128.94 1.81991L125.252 1.85809L124.394 2.26534C122.87 2.97803 121.961 4.05979 121.538 5.67607C121.371 6.31242 121.346 7.58507 121.346 13.7829V21.1517L122.217 21.0753C122.691 21.0244 123.485 20.9353 123.971 20.859Z" fill="#414141"/>
</g>
<defs>
<clipPath id="clip0_3212_10017">
<rect width="224" height="134" fill="white"/>
</clipPath>
</defs>
</svg>
