<svg width="81" height="36" viewBox="0 0 81 36" fill="none" xmlns="http://www.w3.org/2000/svg">
<g opacity="0.7">
<path d="M80.0974 34.8032V4.74366H76.218V22.9026L69.8208 4.74366H65.8055V34.8032H69.6846V14.5353L77.0348 34.8032H80.0974ZM50.4263 34.8032H61.4511V32.2307H54.5094V20.6309H59.5455V18.0583H54.5094V7.31668H61.4511V4.74366H50.4263V34.8032ZM56.9395 1.32107V0.891185H57.0389C57.4088 0.891185 57.5678 0.933405 57.7547 1.0653V0.62752C57.5679 0.775291 57.4088 0.814724 57.0389 0.814724H56.9395V0.440231C56.9395 0.326827 56.9435 0.213466 56.9554 0.10268H57.0349C57.5798 0.10268 57.7627 0.218785 57.9495 0.432335L57.9655 0.0236007H56.4981C56.5736 0.156608 56.6088 0.298194 56.6015 0.440231V1.32103C56.6088 1.46307 56.5736 1.60465 56.4981 1.73766H57.9655L57.9575 1.31845C57.7308 1.55316 57.5797 1.65862 57.0349 1.65862H56.9633C56.9455 1.54644 56.9375 1.43366 56.9395 1.32086M54.3144 0.484899L54.3104 0.0234319H52.5724L52.5685 0.484899C52.7395 0.189357 52.8589 0.107788 53.2724 0.0973174V1.32086C53.2777 1.46281 53.2426 1.60415 53.169 1.73749H53.7177C53.6392 1.60498 53.6026 1.46315 53.6104 1.32086V0.0973174C54.0279 0.107788 54.1432 0.189484 54.3142 0.484899M50.2701 0.416333C50.2693 0.281603 50.3085 0.148087 50.3854 0.0233894H50.0118C50.0863 0.148391 50.1228 0.281939 50.1191 0.416333V1.36832L49.2088 0.265987C49.1618 0.218575 49.1331 0.164235 49.1252 0.107746C49.1264 0.0780568 49.1387 0.0490281 49.1611 0.0233057H48.6441C48.7316 0.123537 48.7554 0.260626 48.7554 0.392438V1.3445C48.7556 1.47884 48.7179 1.61202 48.6441 1.73715H49.0139C48.9394 1.61224 48.903 1.4788 48.9066 1.3445V0.377069L50.0279 1.7377H50.2704L50.2701 0.416333ZM45.8277 1.73749H46.4759C46.3526 1.63734 46.2811 1.51866 46.1894 1.32884L45.569 0.0234319H45.3821L44.7657 1.32884C44.6743 1.51883 44.5947 1.63472 44.4636 1.73749H44.9287C44.8895 1.68147 44.8717 1.61986 44.8771 1.55818C44.8774 1.48499 44.8934 1.41219 44.9248 1.34201L44.9964 1.18377H45.752L45.8236 1.34201C45.8507 1.40999 45.8641 1.48005 45.8634 1.55037C45.8656 1.61358 45.8535 1.67665 45.8275 1.73749M45.7166 1.10748H45.0285L45.3746 0.345404L45.7166 1.10748ZM45.2553 9.48296C45.2553 5.64675 41.9204 4.74366 39.2665 4.74366H32.3928V34.8032H36.5441V21.4886H38.9941C40.4232 21.4886 41.3761 22.2559 41.3761 23.4745V34.8032H45.3916V24.0162C45.3916 22.2559 44.5748 20.9019 42.465 20.2699C44.5747 19.6379 45.2553 18.2839 45.2553 16.4786V9.48296ZM41.1717 16.8852C41.1717 18.1038 40.2191 18.8712 38.858 18.8712H36.544V7.49705H39.1984C40.3553 7.49705 41.1719 7.99377 41.1719 9.21241L41.1717 16.8852ZM41.8951 0.944172C42.0163 0.901804 42.1173 0.837891 42.1869 0.759593C42.2564 0.681296 42.2917 0.591706 42.2888 0.500859C42.2888 0.0947003 41.8195 0.0237695 41.4616 0.0237695H40.7217C40.7972 0.156775 40.8324 0.29836 40.8252 0.440399V1.3212C40.8324 1.46324 40.7972 1.60482 40.7217 1.73783H41.2705C41.1908 1.60547 41.1529 1.46366 41.1592 1.3212V1.00742H41.5052C41.5887 1.00742 41.6483 1.01531 41.7039 1.13129L42.0022 1.73783H42.4635C42.3735 1.65985 42.3036 1.57254 42.2566 1.47944L42.0817 1.11284C42.0379 1.01797 41.9942 0.967857 41.8948 0.94396M41.3978 0.930703H41.1592V0.440399C41.1592 0.324378 41.1631 0.22153 41.1751 0.102849C41.2387 0.100231 41.3062 0.100231 41.374 0.100231C41.7357 0.100231 41.9227 0.245299 41.9227 0.545907C41.9227 0.833427 41.6801 0.930915 41.3978 0.930915M38.3949 0.899291C38.3949 0.363938 37.9774 0 37.4485 0C36.8281 0 36.4584 0.390284 36.4584 0.883501C36.4584 1.41885 36.868 1.77747 37.4047 1.77747C38.0212 1.77747 38.3949 1.38981 38.3949 0.899291ZM38.0251 1.01261C38.0251 1.40036 37.8621 1.67724 37.4962 1.67724C37.0906 1.67724 36.8281 1.29747 36.8281 0.764778C36.8281 0.350766 36.9873 0.100231 37.353 0.100231C37.7228 0.100231 38.0251 0.403415 38.0251 1.01261ZM34.3063 0.485279L34.3024 0.023812H32.5645L32.5604 0.485279C32.7314 0.189737 32.8508 0.108168 33.2643 0.0976974V1.32124C33.2696 1.46319 33.2345 1.60453 33.1609 1.73787H33.7096C33.6311 1.60536 33.5945 1.46353 33.6023 1.32124V0.0976974C34.0198 0.108168 34.1351 0.189864 34.3061 0.485279M29.1956 0.382432C29.1956 0.22419 29.3388 0.12911 29.5615 0.12911C29.8041 0.12911 30.0546 0.221361 30.2415 0.445762L30.321 0.060671C30.1543 0.0202994 29.9775 0.00149526 29.8001 0.00527753C29.2672 0.00527753 28.9332 0.229509 28.9332 0.487897C28.9332 0.696254 29.1439 0.809657 29.4024 0.915123L29.7683 1.06547C30.0784 1.19213 30.142 1.2791 30.142 1.4189C30.142 1.57182 29.979 1.66149 29.7523 1.66149C29.5416 1.66149 29.303 1.54809 29.1638 1.20784L28.8338 1.3345C28.9571 1.58237 29.2275 1.77228 29.6371 1.77228C30.0227 1.77228 30.4005 1.59035 30.4005 1.28434C30.4005 1.08924 30.2295 0.970559 29.9549 0.859815L29.6645 0.741134C29.3305 0.60396 29.1952 0.519604 29.1952 0.382261M27.3572 30.019V9.52831C27.3572 6.50399 24.295 4.38276 20.6198 4.38276C16.9445 4.38276 13.8824 6.50399 13.8824 9.52831V30.019C13.8824 33.0884 16.9445 35.1642 20.6198 35.1642C24.295 35.1642 27.3572 33.0883 27.3572 30.019ZM23.274 30.5607C23.274 31.5986 22.2529 32.4109 20.6198 32.4109C18.9185 32.4109 17.9654 31.5986 17.9654 30.5607V8.98662C17.9654 7.99369 18.9185 7.13602 20.6198 7.13602C22.253 7.13602 23.274 7.99369 23.274 8.98662V30.5607ZM26.5093 1.32111V0.440399C26.502 0.298363 26.5372 0.156777 26.6127 0.0237695H26.0715C26.147 0.156777 26.1821 0.298363 26.1749 0.440399V1.3212C26.1822 1.46323 26.147 1.60482 26.0715 1.73783H26.6127C26.5372 1.60482 26.502 1.46323 26.5093 1.3212M23.3041 0.944129C23.4253 0.901773 23.5264 0.837862 23.5959 0.759562C23.6655 0.681262 23.7007 0.591667 23.6978 0.500816C23.6978 0.0946578 23.2287 0.0237283 22.8707 0.0237283H22.1311C22.2066 0.156733 22.2417 0.298318 22.2345 0.440357V1.32116C22.2417 1.46319 22.2066 1.60478 22.1311 1.73779H22.6798C22.6001 1.60544 22.5621 1.46363 22.5684 1.32116V1.00737H22.9145C22.998 1.00737 23.0577 1.01527 23.1133 1.13125L23.4115 1.73779H23.8728C23.7829 1.65979 23.713 1.57249 23.666 1.4794L23.491 1.1128C23.4472 1.01793 23.4036 0.967814 23.304 0.943918M22.8071 0.930661H22.5684V0.440399C22.5684 0.324378 22.5724 0.22153 22.5843 0.102849C22.648 0.100231 22.7156 0.100231 22.7831 0.100231C23.145 0.100231 23.3319 0.245299 23.3319 0.545907C23.3319 0.833427 23.0893 0.930915 22.807 0.930915M0 34.8032H10.7526V32.0953H4.08306V4.74366H0V34.8032Z" fill="#414141"/>
</g>
</svg>
