<svg width="95" height="31" viewBox="0 0 95 31" fill="none" xmlns="http://www.w3.org/2000/svg">
<path d="M94.1598 29.817V4.06403H89.5993V19.6213L82.079 4.06403H77.3587V29.817H81.9189V12.4528L90.5596 29.817H94.1598ZM59.2795 29.817H72.2399V27.613H64.0794V17.6751H69.9998V15.4711H64.0794V6.26842H72.2399V4.06403H59.2795V29.817ZM66.9362 1.1318V0.763504H67.053C67.4878 0.763504 67.6748 0.799676 67.8945 0.912675V0.537615C67.6749 0.664214 67.4878 0.697998 67.053 0.697998H66.9362V0.377159C66.9362 0.280002 66.9408 0.182882 66.9549 0.0879689H67.0484C67.6889 0.0879689 67.9039 0.187439 68.1235 0.370394L68.1423 0.0202194H66.4173C66.5061 0.134171 66.5474 0.255472 66.5389 0.377159V1.13176C66.5474 1.25345 66.5061 1.37475 66.4173 1.4887H68.1423L68.133 1.12956C67.8665 1.33063 67.6888 1.42099 67.0483 1.42099H66.9642C66.9432 1.32488 66.9339 1.22826 66.9362 1.13162M63.8502 0.415427L63.8456 0.0200748H61.8024L61.7978 0.415427C61.9988 0.162228 62.1391 0.0923451 62.6253 0.0833746V1.13162C62.6315 1.25323 62.5902 1.37432 62.5037 1.48856H63.1488C63.0564 1.37503 63.0135 1.25353 63.0226 1.13162V0.0833746C63.5134 0.0923451 63.6489 0.162336 63.85 0.415427M59.0959 0.356685C59.0949 0.241258 59.141 0.126871 59.2315 0.0200384H58.7922C58.8798 0.127131 58.9227 0.241545 58.9184 0.356685V1.17228L57.8482 0.227879C57.793 0.18726 57.7593 0.140705 57.75 0.0923093C57.7514 0.0668736 57.7658 0.0420038 57.7922 0.0199666H57.1845C57.2873 0.105837 57.3153 0.223286 57.3153 0.336213V1.15188C57.3155 1.26697 57.2711 1.38106 57.1845 1.48827H57.6191C57.5316 1.38126 57.4887 1.26693 57.4929 1.15188V0.323046L58.8111 1.48874H59.0962L59.0959 0.356685ZM53.8735 1.48856H54.6355C54.4905 1.40276 54.4065 1.30108 54.2987 1.13846L53.5694 0.0200748H53.3498L52.6251 1.13846C52.5176 1.30123 52.4241 1.40052 52.2699 1.48856H52.8167C52.7706 1.44056 52.7497 1.38778 52.7561 1.33494C52.7564 1.27223 52.7752 1.20987 52.8121 1.14974L52.8963 1.01417H53.7845L53.8687 1.14974C53.9006 1.20798 53.9163 1.26801 53.9155 1.32825C53.9181 1.3824 53.9039 1.43644 53.8733 1.48856M53.7429 0.94881H52.934L53.3408 0.295918L53.7429 0.94881ZM53.2007 8.12433C53.2007 4.83773 49.2802 4.06403 46.1604 4.06403H38.0799V29.817H42.96V18.4099H45.8401C47.5202 18.4099 48.6404 19.0673 48.6404 20.1113V29.817H53.3608V20.5754C53.3608 19.0672 52.4006 17.9073 49.9205 17.3659C52.4006 16.8244 53.2007 15.6644 53.2007 14.1177V8.12433ZM48.4001 14.466C48.4001 15.5101 47.2803 16.1675 45.6802 16.1675H42.9599V6.42294H46.0803C47.4403 6.42294 48.4003 6.8485 48.4003 7.89255L48.4001 14.466ZM49.2505 0.8089C49.393 0.772602 49.5118 0.717846 49.5935 0.650766C49.6752 0.583686 49.7167 0.506932 49.7133 0.429101C49.7133 0.0811325 49.1617 0.020364 48.7408 0.020364H47.8711C47.9599 0.134313 48.0012 0.255614 47.9927 0.377303V1.13191C48.0012 1.2536 47.9599 1.3749 47.8711 1.48885H48.5162C48.4225 1.37546 48.378 1.25396 48.3854 1.13191V0.863084H48.7921C48.8903 0.863084 48.9604 0.869849 49.0257 0.969211L49.3764 1.48885H49.9187C49.8129 1.42204 49.7307 1.34724 49.6755 1.26748L49.4698 0.953404C49.4184 0.872127 49.367 0.829192 49.2502 0.808719M48.6658 0.797361H48.3853V0.377303C48.3853 0.277904 48.39 0.189791 48.4041 0.0881135C48.4789 0.0858709 48.5582 0.0858705 48.6379 0.0858705C49.0632 0.0858705 49.2829 0.210155 49.2829 0.467695C49.2829 0.714022 48.9978 0.797542 48.6659 0.797542M45.1357 0.770449C45.1357 0.311796 44.6449 0 44.0232 0C43.2939 0 42.8593 0.334368 42.8593 0.756921C42.8593 1.21557 43.3408 1.52281 43.9718 1.52281C44.6964 1.52281 45.1357 1.19069 45.1357 0.770449ZM44.7011 0.867533C44.7011 1.19973 44.5094 1.43694 44.0793 1.43694C43.6025 1.43694 43.2939 1.11158 43.2939 0.655208C43.2939 0.300512 43.481 0.0858705 43.9109 0.0858705C44.3457 0.0858705 44.7011 0.345617 44.7011 0.867533ZM40.3294 0.415753L40.3248 0.0204005H38.2817L38.2769 0.415753C38.478 0.162554 38.6183 0.0926708 39.1044 0.0837003V1.13195C39.1106 1.25356 39.0694 1.37465 38.9829 1.48888H39.6279C39.5355 1.37536 39.4926 1.25385 39.5017 1.13195V0.0837003C39.9925 0.0926708 40.1281 0.162662 40.3291 0.415753M34.3214 0.32764C34.3214 0.19207 34.4897 0.110612 34.7515 0.110612C35.0367 0.110612 35.3312 0.189647 35.5509 0.381897L35.6444 0.0519786C35.4484 0.0173911 35.2405 0.00128103 35.032 0.00452142C34.4055 0.00452142 34.0129 0.196627 34.0129 0.417996C34.0129 0.596501 34.2607 0.693657 34.5645 0.784013L34.9946 0.912819C35.3591 1.02133 35.434 1.09585 35.434 1.21561C35.434 1.34662 35.2423 1.42345 34.9758 1.42345C34.7281 1.42345 34.4477 1.32629 34.284 1.03479L33.896 1.1433C34.041 1.35567 34.3588 1.51836 34.8404 1.51836C35.2937 1.51836 35.7378 1.3625 35.7378 1.10033C35.7378 0.933185 35.5368 0.831506 35.214 0.736629L34.8726 0.634951C34.4799 0.51743 34.321 0.44516 34.321 0.327495M32.1602 25.7182V8.16318C32.1602 5.57216 28.5604 3.75484 24.2399 3.75484C19.9194 3.75484 16.3197 5.57216 16.3197 8.16318V25.7182C16.3197 28.3478 19.9194 30.1262 24.2399 30.1262C28.5604 30.1262 32.1602 28.3477 32.1602 25.7182ZM27.3601 26.1822C27.3601 27.0715 26.1598 27.7674 24.2399 27.7674C22.2399 27.7674 21.1196 27.0715 21.1196 26.1822V7.6991C21.1196 6.84843 22.2399 6.11364 24.2399 6.11364C26.1599 6.11364 27.3601 6.84843 27.3601 7.6991V26.1822ZM31.1634 1.13184V0.377303C31.1549 0.255616 31.1962 0.134315 31.285 0.020364H30.6488C30.7376 0.134315 30.7789 0.255616 30.7704 0.377303V1.13191C30.7789 1.2536 30.7376 1.3749 30.6488 1.48885H31.285C31.1962 1.3749 31.1549 1.2536 31.1634 1.13191M27.3955 0.808863C27.5381 0.772575 27.6568 0.717822 27.7386 0.650739C27.8203 0.583657 27.8618 0.506898 27.8584 0.429064C27.8584 0.0810961 27.3069 0.0203287 26.886 0.0203287H26.0166C26.1053 0.134278 26.1466 0.255578 26.1382 0.377267V1.13187C26.1467 1.25356 26.1053 1.37486 26.0166 1.48881H26.6617C26.5679 1.37542 26.5233 1.25393 26.5307 1.13187V0.863047H26.9375C27.0357 0.863047 27.1058 0.869812 27.1712 0.969175L27.5218 1.48881H28.0641C27.9584 1.42199 27.8762 1.3472 27.8209 1.26744L27.6153 0.953368C27.5638 0.872091 27.5124 0.829155 27.3955 0.808682M26.8113 0.797325H26.5306V0.377303C26.5306 0.277904 26.5354 0.189791 26.5494 0.0881135C26.6242 0.0858709 26.7037 0.0858705 26.7831 0.0858705C27.2085 0.0858705 27.4282 0.210155 27.4282 0.467695C27.4282 0.714022 27.143 0.797542 26.8112 0.797542M0 29.817H12.6404V27.497H4.79991V4.06403H0V29.817Z" fill="#414141" fill-opacity="0.7"/>
</svg>
