<svg width="56" height="36" viewBox="0 0 56 36" fill="none" xmlns="http://www.w3.org/2000/svg">
<path d="M29.4985 32.7688C29.3997 32.9803 29.3997 33.1917 29.3997 33.4559C29.3997 33.7202 29.4491 33.9316 29.4985 34.143C29.5973 34.3544 29.6961 34.513 29.8444 34.6716C29.9926 34.8301 30.1409 34.9358 30.3385 35.0415C30.5361 35.1472 30.7338 35.1472 30.9314 35.1472C31.1785 35.1472 31.3761 35.0944 31.5738 34.9887C31.7714 34.883 31.9197 34.7773 32.0679 34.5658L31.8208 34.3016C31.722 34.4601 31.5738 34.5658 31.4255 34.6187C31.2773 34.6716 31.1291 34.7244 30.9314 34.7244C30.7832 34.7244 30.5856 34.6716 30.4867 34.6187C30.3385 34.5658 30.2397 34.4601 30.1409 34.3544C30.042 34.2487 29.9432 34.0902 29.8938 33.9316C29.8444 33.773 29.795 33.6145 29.795 33.4031C29.795 33.2445 29.8444 33.0331 29.8938 32.8745C29.9432 32.716 30.042 32.5574 30.1409 32.4517C30.2397 32.346 30.3879 32.2403 30.4867 32.1346C30.635 32.0818 30.7832 32.0289 30.9314 32.0289C31.0797 32.0289 31.2279 32.0818 31.3267 32.1346C31.475 32.1875 31.5738 32.2932 31.6726 32.4517L31.9691 32.1875C31.8208 32.0289 31.6726 31.8703 31.475 31.8175C31.3267 31.7646 31.1291 31.7118 30.9314 31.7118C30.6844 31.7118 30.4867 31.7646 30.2891 31.8703C30.0914 31.976 29.9432 32.0818 29.795 32.2403C29.6961 32.346 29.5479 32.5574 29.4985 32.7688ZM26.6327 31.8175L25.2985 35.0415H25.6938L26.7809 32.2932L27.8185 35.0415H28.2138L26.9291 31.8175H26.6327ZM23.6186 31.8175H21.7409V35.0415H23.7174V34.6716H22.0868V33.5088H23.5197V33.1388H22.0868V32.1346H23.6186V31.8175ZM2.02586 10.0421C2.02586 7.87509 3.70584 6.39521 6.07758 6.39521C6.76934 6.39521 7.41168 6.50092 8.05403 6.71233C9.04225 7.02945 9.78342 7.61083 10.2775 8.29792L11.5128 6.87089C10.9199 6.65947 9.88225 5.76097 8.54814 5.2853C7.75756 5.02103 6.91757 4.86247 6.07758 4.86247C2.81644 4.86247 0.39529 7.0823 0.39529 10.0421C0.39529 13.3718 3.21173 14.8517 5.97876 16.2259C8.49873 17.4943 10.8211 18.71 10.8211 21.2997C10.8211 21.934 10.6728 22.8853 10.0305 23.6781C9.2399 24.6823 7.9058 25.158 6.02817 25.158C5.08936 25.158 4.15054 24.9995 3.26114 24.6295C2.37174 24.2595 1.67998 23.731 1.23528 23.0439L0 24.4709C0.592935 24.7352 1.63057 25.6337 3.01408 26.1094C4.00231 26.4793 4.99053 26.6908 6.07758 26.6908C10.8211 26.6908 12.501 23.7838 12.501 21.2469C12.501 17.7057 9.58578 16.2259 6.71993 14.746C4.29878 13.5304 2.02586 12.3676 2.02586 10.0421ZM18.6774 32.1346C18.7763 32.1346 18.8257 32.1346 18.9245 32.1346C19.0233 32.1346 19.0727 32.1875 19.1221 32.1875C19.1716 32.2403 19.221 32.2932 19.2704 32.346C19.3198 32.3989 19.3198 32.5046 19.3198 32.6103C19.3198 32.716 19.3198 32.8217 19.2704 32.8745C19.221 32.9274 19.1716 32.9803 19.1221 33.0331C19.0727 33.086 18.9739 33.086 18.9245 33.086C18.8257 33.086 18.7763 33.086 18.6774 33.086H18.1833V32.0818H18.6774V32.1346ZM18.1339 33.5088H18.7763C18.8751 33.5088 18.9739 33.5088 19.0233 33.5616C19.1221 33.5616 19.1716 33.6145 19.2704 33.6673C19.3198 33.7202 19.3692 33.7731 19.4186 33.8259C19.468 33.8788 19.468 33.9845 19.468 34.0902C19.468 34.1959 19.468 34.3016 19.4186 34.3544C19.3692 34.4073 19.3198 34.4601 19.2704 34.513C19.221 34.5658 19.1221 34.5658 19.0233 34.6187C18.9245 34.6187 18.8257 34.6716 18.7763 34.6716H18.1833V33.5088H18.1339ZM18.7269 31.8175H17.788V35.0415H18.6774C18.8257 35.0415 18.9739 35.0415 19.1221 34.9887C19.2704 34.9358 19.3692 34.9358 19.5174 34.8301C19.6163 34.7773 19.7151 34.6716 19.8139 34.5658C19.8633 34.4601 19.9127 34.3016 19.9127 34.143C19.9127 34.0373 19.9127 33.9316 19.8633 33.8259C19.8139 33.7202 19.7645 33.6673 19.7151 33.5616C19.6657 33.5088 19.5668 33.4559 19.5174 33.4031C19.4186 33.3502 19.3198 33.3502 19.2704 33.2974C19.4186 33.2445 19.5668 33.1388 19.6657 33.0331C19.7645 32.9274 19.8139 32.7688 19.8139 32.5574C19.8139 32.3989 19.7645 32.2932 19.7151 32.1875C19.6657 32.0818 19.5668 32.0289 19.468 31.9232C19.3692 31.8703 19.2704 31.8175 19.1716 31.7646C18.9739 31.8175 18.8257 31.8175 18.7269 31.8175ZM29.8938 1.6913V1.63844V0.105706V0C29.0538 0.105706 28.115 0.105706 27.5715 0.105706H25.9409C25.3974 0.105706 24.508 0.105706 23.6186 0V0.105706V1.63844V1.74415C24.4586 1.63844 25.3974 1.63844 25.9409 1.63844H27.5715C28.1644 1.63844 29.0538 1.58559 29.8938 1.6913ZM33.4514 26.6908L35.2302 25.8451C34.5384 24.5766 34.4396 24.3124 34.1432 23.6781L26.7809 4.75677L19.4186 23.6781C19.1221 24.3124 19.0233 24.6295 18.3316 25.8451L20.1104 26.6908C20.3574 25.5808 20.8021 24.4709 21.0492 23.7838L26.7809 8.98501L32.5126 23.7838C32.7596 24.4709 33.1549 25.5808 33.4514 26.6908ZM35.5761 35.0415H35.922V31.8175H35.5761V33.1917H33.9455V31.8175H33.5996V35.0415H33.9455V33.5088H35.5761V35.0415ZM53.3641 9.61924V21.7754L42.2466 5.49671H41.9501V22.6739C41.9501 24.4709 41.8019 26.1094 41.8019 26.1094H43.6301C43.6301 26.1094 43.4819 24.4709 43.4819 22.6739V9.88351L54.5006 26.3208H54.9453V9.61924C54.9453 7.82224 55.0935 5.60242 55.0935 5.60242H53.3147C53.2159 5.60242 53.3641 7.82224 53.3641 9.61924Z" fill="#414141"/>
</svg>
